STARTFONT 2.1
FONT -Misc-Tamsyn-Bold-R-Normal--11-79-100-100-C-60-ISO8859-1
SIZE 11 100 100
FONTBOUNDINGBOX 6 11 0 -2
STARTPROPERTIES 25
FONTNAME_REGISTRY ""
FOUNDRY "Misc"
FAMILY_NAME "Tamsyn"
WEIGHT_NAME "Bold"
SLANT "R"
SETWIDTH_NAME "Normal"
ADD_STYLE_NAME ""
PIXEL_SIZE 11
POINT_SIZE 79
RESOLUTION_X 100
RESOLUTION_Y 100
SPACING "C"
AVERAGE_WIDTH 60
CHARSET_REGISTRY "ISO8859"
CHARSET_ENCODING "1"
COPYRIGHT "(c) 2010 Scott Fial"
CAP_HEIGHT 7
X_HEIGHT 5
FONT_VERSION "1.6"
WEIGHT 10
QUAD_WIDTH 6
DEFAULT_CHAR 0
FONT_DESCENT 2
FONT_ASCENT 9
_GBDFED_INFO "Edited with gbdfed 1.6."
ENDPROPERTIES
CHARS 9

STARTCHAR POWERLINE BRANCH
ENCODING 11104
SWIDTH 392 0
DWIDTH 6 0
BBX 6 11 0 -2
BITMAP
20
20
28
28
28
28
08
30
00
20
20
ENDCHAR
STARTCHAR POWERLINE LINE NUMBER
ENCODING 11105
SWIDTH 392 0
DWIDTH 6 0
BBX 6 11 0 -2
BITMAP
80
80
80
80
F0
00
24
34
2C
24
24
ENDCHAR
STARTCHAR POWERLINE F
ENCODING 11106
SWIDTH 392 0
DWIDTH 6 0
BBX 6 11 0 -2
BITMAP
00
FC
80
BC
84
B8
A0
A0
A0
40
00
ENDCHAR
STARTCHAR POWERLINE T
ENCODING 11107
SWIDTH 392 0
DWIDTH 6 0
BBX 6 11 0 -2
BITMAP
00
F8
04
D8
50
50
50
50
50
20
00
ENDCHAR
STARTCHAR POWERLINE READ ONLY
ENCODING 11108
SWIDTH 392 0
DWIDTH 6 0
BBX 6 11 0 -2
BITMAP
00
30
48
48
48
FC
FC
CC
FC
78
00
ENDCHAR
STARTCHAR POWERLINE SOLID RIGHT
ENCODING 11136
SWIDTH 392 0
DWIDTH 6 0
BBX 6 11 0 -2
BITMAP
80
C0
E0
F0
F8
FC
F8
F0
E0
C0
80
ENDCHAR
STARTCHAR POWERLINE RIGHT
ENCODING 11137
SWIDTH 392 0
DWIDTH 6 0
BBX 6 11 0 -2
BITMAP
80
40
20
10
08
04
08
10
20
40
80
ENDCHAR
STARTCHAR POWERLINE SOLID LEFT
ENCODING 11138
SWIDTH 392 0
DWIDTH 6 0
BBX 6 11 0 -2
BITMAP
04
0C
1C
3C
7C
FC
7C
3C
1C
0C
04
ENDCHAR
STARTCHAR POWERLINE LEFT
ENCODING 11139
SWIDTH 392 0
DWIDTH 6 0
BBX 6 11 0 -2
BITMAP
04
08
10
20
40
80
40
20
10
08
04
ENDCHAR
ENDFONT
