STARTFONT 2.1
FONT -Misc-Tamsyn-Medium-R-Normal--14-101-100-100-C-70-ISO10646-1
SIZE 14 100 100
FONTBOUNDINGBOX 7 14 0 -3
STARTPROPERTIES 25
FONTNAME_REGISTRY ""
FOUNDRY "Misc"
FAMILY_NAME "Tamsyn"
WEIGHT_NAME "Medium"
SLANT "R"
SETWIDTH_NAME "Normal"
ADD_STYLE_NAME ""
PIXEL_SIZE 14
POINT_SIZE 101
RESOLUTION_X 100
RESOLUTION_Y 100
SPACING "C"
AVERAGE_WIDTH 70
CHARSET_REGISTRY "ISO10646"
CHARSET_ENCODING "1"
COPYRIGHT "(c) 2012 Scott Fial"
CAP_HEIGHT 8
X_HEIGHT 6
FONT_VERSION "1.9"
WEIGHT 10
QUAD_WIDTH 7
DEFAULT_CHAR 0
FONT_DESCENT 3
FONT_ASCENT 11
_GBDFED_INFO "Edited with gbdfed 1.6."
ENDPROPERTIES
CHARS 9
STARTCHAR U+2B60
ENCODING 11104
SWIDTH 360 0
DWIDTH 7 0
BBX 7 14 0 -3
BITMAP
00
60
60
6C
6C
6C
6C
0C
7C
78
00
60
60
00
ENDCHAR
STARTCHAR U+2B61
ENCODING 11105
SWIDTH 360 0
DWIDTH 7 0
BBX 7 14 0 -3
BITMAP
00
80
80
80
80
F0
00
00
12
1A
16
12
12
00
ENDCHAR
STARTCHAR U+2B62
ENCODING 11106
SWIDTH 360 0
DWIDTH 7 0
BBX 7 14 0 -3
BITMAP
00
00
FE
80
BE
82
BC
A0
A0
A0
A0
40
00
00
ENDCHAR
STARTCHAR U+2B63
ENCODING 11107
SWIDTH 360 0
DWIDTH 7 0
BBX 7 14 0 -3
BITMAP
00
00
FC
02
EC
28
28
28
28
28
28
10
00
00
ENDCHAR
STARTCHAR U+2B64
ENCODING 11108
SWIDTH 360 0
DWIDTH 7 0
BBX 7 14 0 -3
BITMAP
00
38
44
44
44
44
FE
FE
EE
EE
FE
7C
00
00
ENDCHAR
STARTCHAR U+2B80
ENCODING 11136
SWIDTH 360 0
DWIDTH 7 0
BBX 7 14 0 -3
BITMAP
80
C0
E0
F0
F8
FC
FE
FE
FC
F8
F0
E0
C0
80
ENDCHAR
STARTCHAR U+2B81
ENCODING 11137
SWIDTH 360 0
DWIDTH 7 0
BBX 7 14 0 -3
BITMAP
80
40
20
10
08
04
02
02
04
08
10
20
40
80
ENDCHAR
STARTCHAR U+2B82
ENCODING 11138
SWIDTH 360 0
DWIDTH 7 0
BBX 7 14 0 -3
BITMAP
02
06
0E
1E
3E
7E
FE
FE
7E
3E
1E
0E
06
02
ENDCHAR
STARTCHAR U+2B83
ENCODING 11139
SWIDTH 360 0
DWIDTH 7 0
BBX 7 14 0 -3
BITMAP
02
04
08
10
20
40
80
80
40
20
10
08
04
02
ENDCHAR
ENDFONT
